<svg xmlns="http://www.w3.org/2000/svg" viewBox="0 0 920 416" font-family="Inter, system-ui, sans-serif" font-size="12">
  <style>
    .ax{stroke:#e5e7eb;stroke-width:1}
    .base{stroke:#9ca3af;stroke-width:1.2}
    .ref{stroke:#4b5563;stroke-width:1.2;stroke-dasharray:4 3}
    .t{fill:#1f2937;font-size:12.5px}
    .m{fill:#4b5563;font-size:11.5px}
    .hd{fill:#111827;font-weight:600;font-size:13.5px}
    .sub{fill:#4b5563;font-size:12px}
    @media (prefers-color-scheme: dark){
      .t{fill:#e5e7eb} .m{fill:#9ca3af} .hd{fill:#f9fafb} .sub{fill:#9ca3af}
      .ax{stroke:#374151} .base{stroke:#6b7280} .ref{stroke:#9ca3af}
    }
  </style>
  <text x="8" y="20" class="hd">bytes per entry, uint64_t key, 64 byte value</text>
  <text x="8" y="38" class="sub">geometric mean over one octave from 32,000 entries, from a counting allocator</text>
  <text x="152" y="56" class="t" font-weight="600">after building</text>
  <line x1="152.0" y1="74" x2="152.0" y2="358" class="ax"/>
  <text x="152.0" y="72" class="m" text-anchor="middle">0</text>
  <line x1="259.9" y1="74" x2="259.9" y2="358" class="ax"/>
  <text x="259.9" y="72" class="m" text-anchor="middle">50</text>
  <line x1="367.7" y1="74" x2="367.7" y2="358" class="ax"/>
  <text x="367.7" y="72" class="m" text-anchor="middle">100</text>
  <line x1="475.6" y1="74" x2="475.6" y2="358" class="ax"/>
  <text x="475.6" y="72" class="m" text-anchor="middle">150</text>
  <line x1="152.0" y1="74" x2="152.0" y2="358" class="base"/>
  <path d="M152.0,88.0 L352.7,88.0 Q355.2,88.0 355.2,90.5 L355.2,97.5 Q355.2,100.0 352.7,100.0 L152.0,100.0 Z" fill="#a53393" opacity="0.8"/>
  <text x="359.2" y="96" class="m" text-anchor="start">94.17</text>
  <path d="M152.0,105.0 L353.3,105.0 Q355.8,105.0 355.8,107.5 L355.8,114.5 Q355.8,117.0 353.3,117.0 L152.0,117.0 Z" fill="#a53393" opacity="0.8"/>
  <text x="359.8" y="113" class="m" text-anchor="start">94.47</text>
  <path d="M152.0,122.0 L355.3,122.0 Q357.8,122.0 357.8,124.5 L357.8,131.5 Q357.8,134.0 355.3,134.0 L152.0,134.0 Z" fill="#a53393" opacity="0.8"/>
  <text x="361.8" y="130" class="m" text-anchor="start">95.37</text>
  <path d="M152.0,139.0 L381.7,139.0 Q384.2,139.0 384.2,141.5 L384.2,148.5 Q384.2,151.0 381.7,151.0 L152.0,151.0 Z" fill="#0e8f60" opacity="0.95"/>
  <text x="388.2" y="147" class="m" text-anchor="start">107.63</text>
  <path d="M152.0,156.0 L383.3,156.0 Q385.8,156.0 385.8,158.5 L385.8,165.5 Q385.8,168.0 383.3,168.0 L152.0,168.0 Z" fill="#a53393" opacity="0.8"/>
  <text x="389.8" y="164" class="m" text-anchor="start">108.36</text>
  <path d="M152.0,173.0 L391.8,173.0 Q394.3,173.0 394.3,175.5 L394.3,182.5 Q394.3,185.0 391.8,185.0 L152.0,185.0 Z" fill="#0e8f60" opacity="0.8"/>
  <text x="398.3" y="181" class="m" text-anchor="start">112.30</text>
  <path d="M152.0,190.0 L393.9,190.0 Q396.4,190.0 396.4,192.5 L396.4,199.5 Q396.4,202.0 393.9,202.0 L152.0,202.0 Z" fill="#2563c9" opacity="0.8"/>
  <text x="400.4" y="198" class="m" text-anchor="start">113.30</text>
  <path d="M152.0,207.0 L393.9,207.0 Q396.4,207.0 396.4,209.5 L396.4,216.5 Q396.4,219.0 393.9,219.0 L152.0,219.0 Z" fill="#2563c9" opacity="0.8"/>
  <text x="400.4" y="215" class="m" text-anchor="start">113.30</text>
  <path d="M152.0,224.0 L395.7,224.0 Q398.2,224.0 398.2,226.5 L398.2,233.5 Q398.2,236.0 395.7,236.0 L152.0,236.0 Z" fill="#2563c9" opacity="0.8"/>
  <text x="402.2" y="232" class="m" text-anchor="start">114.11</text>
  <path d="M152.0,241.0 L397.3,241.0 Q399.8,241.0 399.8,243.5 L399.8,250.5 Q399.8,253.0 397.3,253.0 L152.0,253.0 Z" fill="#2563c9" opacity="0.8"/>
  <text x="403.8" y="249" class="m" text-anchor="start">114.86</text>
  <path d="M152.0,258.0 L398.2,258.0 Q400.7,258.0 400.7,260.5 L400.7,267.5 Q400.7,270.0 398.2,270.0 L152.0,270.0 Z" fill="#0e8f60" opacity="0.8"/>
  <text x="404.7" y="266" class="m" text-anchor="start">115.28</text>
  <path d="M152.0,275.0 L401.8,275.0 Q404.3,275.0 404.3,277.5 L404.3,284.5 Q404.3,287.0 401.8,287.0 L152.0,287.0 Z" fill="#0e8f60" opacity="0.8"/>
  <text x="408.3" y="283" class="m" text-anchor="start">116.97</text>
  <path d="M152.0,292.0 L413.0,292.0 Q415.5,292.0 415.5,294.5 L415.5,301.5 Q415.5,304.0 413.0,304.0 L152.0,304.0 Z" fill="#2563c9" opacity="0.8"/>
  <text x="419.5" y="300" class="m" text-anchor="start">122.13</text>
  <path d="M152.0,309.0 L413.0,309.0 Q415.5,309.0 415.5,311.5 L415.5,318.5 Q415.5,321.0 413.0,321.0 L152.0,321.0 Z" fill="#2563c9" opacity="0.8"/>
  <text x="419.5" y="317" class="m" text-anchor="start">122.13</text>
  <path d="M152.0,326.0 L430.3,326.0 Q432.8,326.0 432.8,328.5 L432.8,335.5 Q432.8,338.0 430.3,338.0 L152.0,338.0 Z" fill="#2563c9" opacity="0.8"/>
  <text x="436.8" y="334" class="m" text-anchor="start">130.15</text>
  <path d="M152.0,343.0 L430.3,343.0 Q432.8,343.0 432.8,345.5 L432.8,352.5 Q432.8,355.0 430.3,355.0 L152.0,355.0 Z" fill="#2563c9" opacity="0.8"/>
  <text x="436.8" y="351" class="m" text-anchor="start">130.15</text>
  <text x="536" y="56" class="t" font-weight="600">after churning</text>
  <line x1="536.0" y1="74" x2="536.0" y2="358" class="ax"/>
  <text x="536.0" y="72" class="m" text-anchor="middle">0</text>
  <line x1="616.9" y1="74" x2="616.9" y2="358" class="ax"/>
  <text x="616.9" y="72" class="m" text-anchor="middle">50</text>
  <line x1="697.8" y1="74" x2="697.8" y2="358" class="ax"/>
  <text x="697.8" y="72" class="m" text-anchor="middle">100</text>
  <line x1="778.7" y1="74" x2="778.7" y2="358" class="ax"/>
  <text x="778.7" y="72" class="m" text-anchor="middle">150</text>
  <line x1="859.6" y1="74" x2="859.6" y2="358" class="ax"/>
  <text x="859.6" y="72" class="m" text-anchor="middle">200</text>
  <line x1="536.0" y1="74" x2="536.0" y2="358" class="base"/>
  <path d="M536.0,88.0 L689.3,88.0 Q691.8,88.0 691.8,90.5 L691.8,97.5 Q691.8,100.0 689.3,100.0 L536.0,100.0 Z" fill="#a53393" opacity="0.8"/>
  <text x="695.8" y="96" class="m" text-anchor="start">96.28</text>
  <path d="M536.0,105.0 L686.3,105.0 Q688.8,105.0 688.8,107.5 L688.8,114.5 Q688.8,117.0 686.3,117.0 L536.0,117.0 Z" fill="#a53393" opacity="0.8"/>
  <text x="692.8" y="113" class="m" text-anchor="start">94.47</text>
  <path d="M536.0,122.0 L687.8,122.0 Q690.3,122.0 690.3,124.5 L690.3,131.5 Q690.3,134.0 687.8,134.0 L536.0,134.0 Z" fill="#a53393" opacity="0.8"/>
  <text x="694.3" y="130" class="m" text-anchor="start">95.37</text>
  <path d="M536.0,139.0 L707.6,139.0 Q710.1,139.0 710.1,141.5 L710.1,148.5 Q710.1,151.0 707.6,151.0 L536.0,151.0 Z" fill="#0e8f60" opacity="0.95"/>
  <text x="714.1" y="147" class="m" text-anchor="start">107.63</text>
  <path d="M536.0,156.0 L708.8,156.0 Q711.3,156.0 711.3,158.5 L711.3,165.5 Q711.3,168.0 708.8,168.0 L536.0,168.0 Z" fill="#a53393" opacity="0.8"/>
  <text x="715.3" y="164" class="m" text-anchor="start">108.36</text>
  <path d="M536.0,173.0 L715.2,173.0 Q717.7,173.0 717.7,175.5 L717.7,182.5 Q717.7,185.0 715.2,185.0 L536.0,185.0 Z" fill="#0e8f60" opacity="0.8"/>
  <text x="721.7" y="181" class="m" text-anchor="start">112.30</text>
  <path d="M536.0,190.0 L744.1,190.0 Q746.6,190.0 746.6,192.5 L746.6,199.5 Q746.6,202.0 744.1,202.0 L536.0,202.0 Z" fill="#2563c9" opacity="0.8"/>
  <text x="750.6" y="198" class="m" text-anchor="start">130.15</text>
  <path d="M536.0,207.0 L744.1,207.0 Q746.6,207.0 746.6,209.5 L746.6,216.5 Q746.6,219.0 744.1,219.0 L536.0,219.0 Z" fill="#2563c9" opacity="0.8"/>
  <text x="750.6" y="215" class="m" text-anchor="start">130.15</text>
  <path d="M536.0,224.0 L718.1,224.0 Q720.6,224.0 720.6,226.5 L720.6,233.5 Q720.6,236.0 718.1,236.0 L536.0,236.0 Z" fill="#2563c9" opacity="0.8"/>
  <text x="724.6" y="232" class="m" text-anchor="start">114.11</text>
  <path d="M536.0,241.0 L719.3,241.0 Q721.8,241.0 721.8,243.5 L721.8,250.5 Q721.8,253.0 719.3,253.0 L536.0,253.0 Z" fill="#2563c9" opacity="0.8"/>
  <text x="725.8" y="249" class="m" text-anchor="start">114.86</text>
  <path d="M536.0,258.0 L720.0,258.0 Q722.5,258.0 722.5,260.5 L722.5,267.5 Q722.5,270.0 720.0,270.0 L536.0,270.0 Z" fill="#0e8f60" opacity="0.8"/>
  <text x="726.5" y="266" class="m" text-anchor="start">115.28</text>
  <path d="M536.0,275.0 L722.7,275.0 Q725.2,275.0 725.2,277.5 L725.2,284.5 Q725.2,287.0 722.7,287.0 L536.0,287.0 Z" fill="#0e8f60" opacity="0.8"/>
  <text x="729.2" y="283" class="m" text-anchor="start">116.97</text>
  <path d="M536.0,292.0 L731.1,292.0 Q733.6,292.0 733.6,294.5 L733.6,301.5 Q733.6,304.0 731.1,304.0 L536.0,304.0 Z" fill="#2563c9" opacity="0.8"/>
  <text x="737.6" y="300" class="m" text-anchor="start">122.13</text>
  <path d="M536.0,309.0 L731.1,309.0 Q733.6,309.0 733.6,311.5 L733.6,318.5 Q733.6,321.0 731.1,321.0 L536.0,321.0 Z" fill="#2563c9" opacity="0.8"/>
  <text x="737.6" y="317" class="m" text-anchor="start">122.13</text>
  <path d="M536.0,326.0 L775.4,326.0 Q777.9,326.0 777.9,328.5 L777.9,335.5 Q777.9,338.0 775.4,338.0 L536.0,338.0 Z" fill="#2563c9" opacity="0.8"/>
  <text x="781.9" y="334" class="m" text-anchor="start">149.51</text>
  <path d="M536.0,343.0 L744.1,343.0 Q746.6,343.0 746.6,345.5 L746.6,352.5 Q746.6,355.0 744.1,355.0 L536.0,355.0 Z" fill="#2563c9" opacity="0.8"/>
  <text x="750.6" y="351" class="m" text-anchor="start">130.15</text>
  <text x="144" y="96" class="t" text-anchor="end">absl node</text>
  <text x="144" y="113" class="t" text-anchor="end">F14Node</text>
  <text x="144" y="130" class="t" text-anchor="end">boost node</text>
  <text x="144" y="147" class="t" text-anchor="end" font-weight='600'>unordered_dense 5.0</text>
  <text x="144" y="164" class="t" text-anchor="end">std::unordered_map</text>
  <text x="144" y="181" class="t" text-anchor="end">unordered_dense 4.11</text>
  <text x="144" y="198" class="t" text-anchor="end">absl flat</text>
  <text x="144" y="215" class="t" text-anchor="end">absl flat, own hash</text>
  <text x="144" y="232" class="t" text-anchor="end">F14Value</text>
  <text x="144" y="249" class="t" text-anchor="end">indivi flat_umap</text>
  <text x="144" y="266" class="t" text-anchor="end">F14Vector</text>
  <text x="144" y="283" class="t" text-anchor="end">emhash8</text>
  <text x="144" y="300" class="t" text-anchor="end">boost flat</text>
  <text x="144" y="317" class="t" text-anchor="end">boost flat, own hash</text>
  <text x="144" y="334" class="t" text-anchor="end">indivi flat_wmap</text>
  <text x="144" y="351" class="t" text-anchor="end">emilib</text>
  <rect x="152" y="375" width="11" height="11" fill="#2563c9" opacity="0.85"/>
  <text x="168" y="384" class="m">flat</text>
  <rect x="226" y="375" width="11" height="11" fill="#0e8f60" opacity="0.85"/>
  <text x="242" y="384" class="m">dense</text>
  <rect x="300" y="375" width="11" height="11" fill="#a53393" opacity="0.85"/>
  <text x="316" y="384" class="m">node</text>
  <text x="384" y="384" class="m">bytes per live entry</text>
</svg>
